<svg width="40" height="40" viewBox="0 0 40 40" fill="none" xmlns="http://www.w3.org/2000/svg">
<path d="M20 1.92538C20 0.862022 20.864 -0.00961304 21.9225 0.092598C25.1992 0.409012 28.3578 1.5307 31.1114 3.37061C34.4004 5.56823 36.9638 8.69181 38.4776 12.3463C39.9913 16.0009 40.3874 20.0222 39.6157 23.9018C38.844 27.7814 36.9392 31.3451 34.1421 34.1421C31.3451 36.9392 27.7814 38.844 23.9018 39.6157C20.0222 40.3874 16.0009 39.9913 12.3463 38.4776C8.69181 36.9638 5.56824 34.4004 3.37061 31.1114C1.5307 28.3578 0.409014 25.1992 0.0925979 21.9225C-0.00961109 20.864 0.862024 20 1.92538 20C2.98874 20 3.83892 20.8651 3.9654 21.9209C4.26655 24.4347 5.15586 26.852 6.57241 28.972C8.34691 31.6278 10.8691 33.6976 13.82 34.9199C16.7708 36.1422 20.0179 36.462 23.1506 35.8389C26.2832 35.2158 29.1607 33.6777 31.4192 31.4192C33.6777 29.1607 35.2158 26.2832 35.8389 23.1506C36.4621 20.0179 36.1422 16.7708 34.9199 13.82C33.6976 10.8691 31.6278 8.3469 28.972 6.5724C26.852 5.15585 24.4347 4.26654 21.9209 3.9654C20.8651 3.83892 20 2.98875 20 1.92538Z" fill="#33A1D2"/>
</svg>
