<svg width="40" height="40" viewBox="0 0 40 40" fill="none" xmlns="http://www.w3.org/2000/svg">
<rect x="2" y="2" width="36" height="36" rx="18" stroke="#E9EBF2" stroke-width="4"/>
<path d="M20 1.92538C20 0.862022 20.864 -0.00961304 21.9225 0.092598C25.1992 0.409012 28.3578 1.5307 31.1114 3.37061C34.4004 5.56823 36.9638 8.69181 38.4776 12.3463C39.9913 16.0009 40.3874 20.0222 39.6157 23.9018C38.844 27.7814 36.9392 31.3451 34.1421 34.1421C31.3451 36.9392 27.7814 38.844 23.9018 39.6157C20.0222 40.3874 16.0009 39.9913 12.3463 38.4776C8.69181 36.9638 5.56824 34.4004 3.37061 31.1114C1.5307 28.3578 0.409014 25.1992 0.0925979 21.9225C-0.00961109 20.864 0.862024 20 1.92538 20C2.98874 20 3.83892 20.8651 3.9654 21.9209C4.26655 24.4347 5.15586 26.852 6.57241 28.972C8.34691 31.6278 10.8691 33.6976 13.82 34.9199C16.7708 36.1422 20.0179 36.462 23.1506 35.8389C26.2832 35.2158 29.1607 33.6777 31.4192 31.4192C33.6777 29.1607 35.2158 26.2832 35.8389 23.1506C36.4621 20.0179 36.1422 16.7708 34.9199 13.82C33.6976 10.8691 31.6278 8.3469 28.972 6.5724C26.852 5.15585 24.4347 4.26654 21.9209 3.9654C20.8651 3.83892 20 2.98875 20 1.92538Z" fill="#33A1D2"/>
<path d="M16.9183 23.5L22.6543 15.1H24.0823L18.3463 23.5H16.9183ZM17.6503 19.636C17.2423 19.636 16.8823 19.544 16.5703 19.36C16.2583 19.168 16.0103 18.9 15.8263 18.556C15.6503 18.204 15.5623 17.792 15.5623 17.32C15.5623 16.848 15.6503 16.44 15.8263 16.096C16.0103 15.752 16.2583 15.484 16.5703 15.292C16.8823 15.1 17.2423 15.004 17.6503 15.004C18.0583 15.004 18.4183 15.1 18.7303 15.292C19.0423 15.484 19.2863 15.752 19.4623 16.096C19.6383 16.44 19.7263 16.848 19.7263 17.32C19.7263 17.792 19.6383 18.204 19.4623 18.556C19.2863 18.9 19.0423 19.168 18.7303 19.36C18.4183 19.544 18.0583 19.636 17.6503 19.636ZM17.6503 18.652C17.9143 18.652 18.1263 18.544 18.2863 18.328C18.4463 18.104 18.5263 17.768 18.5263 17.32C18.5263 16.872 18.4463 16.54 18.2863 16.324C18.1263 16.1 17.9143 15.988 17.6503 15.988C17.3943 15.988 17.1823 16.1 17.0143 16.324C16.8543 16.54 16.7743 16.872 16.7743 17.32C16.7743 17.76 16.8543 18.092 17.0143 18.316C17.1823 18.54 17.3943 18.652 17.6503 18.652ZM23.3503 23.596C22.9503 23.596 22.5903 23.504 22.2703 23.32C21.9583 23.128 21.7143 22.86 21.5383 22.516C21.3623 22.164 21.2743 21.752 21.2743 21.28C21.2743 20.808 21.3623 20.4 21.5383 20.056C21.7143 19.712 21.9583 19.444 22.2703 19.252C22.5903 19.06 22.9503 18.964 23.3503 18.964C23.7663 18.964 24.1303 19.06 24.4423 19.252C24.7543 19.444 24.9983 19.712 25.1743 20.056C25.3503 20.4 25.4383 20.808 25.4383 21.28C25.4383 21.752 25.3503 22.164 25.1743 22.516C24.9983 22.86 24.7543 23.128 24.4423 23.32C24.1303 23.504 23.7663 23.596 23.3503 23.596ZM23.3503 22.612C23.6143 22.612 23.8263 22.504 23.9863 22.288C24.1463 22.064 24.2263 21.728 24.2263 21.28C24.2263 20.84 24.1463 20.508 23.9863 20.284C23.8263 20.06 23.6143 19.948 23.3503 19.948C23.0943 19.948 22.8823 20.06 22.7143 20.284C22.5543 20.5 22.4743 20.832 22.4743 21.28C22.4743 21.728 22.5543 22.064 22.7143 22.288C22.8823 22.504 23.0943 22.612 23.3503 22.612Z" fill="#33A1D2"/>
</svg>
