<svg width="21" height="19" viewBox="0 0 21 19" fill="none" xmlns="http://www.w3.org/2000/svg">
<path d="M17.5 18.5863H3.5C3.23478 18.5863 2.98043 18.4809 2.79289 18.2934C2.60536 18.1059 2.5 17.8515 2.5 17.5863V9.58629H0.5L9.792 0.293287C9.88487 0.20031 9.99516 0.126551 10.1166 0.0762267C10.238 0.0259024 10.3681 0 10.4995 0C10.6309 0 10.761 0.0259024 10.8824 0.0762267C11.0038 0.126551 11.1141 0.20031 11.207 0.293287L20.5 9.58629H18.5V17.5863C18.5 17.8515 18.3946 18.1059 18.2071 18.2934C18.0196 18.4809 17.7652 18.5863 17.5 18.5863ZM8.5 11.5863H12.5V16.5863H16.5V8.41429L10.5 2.41429L4.5 8.41429V16.5863H8.5V11.5863Z" fill="#33A1D2"/>
</svg>
