<svg width="21" height="19" viewBox="0 0 21 19" fill="none" xmlns="http://www.w3.org/2000/svg">
<path d="M0.499027 2.75C0.499027 1.23122 1.73025 0 3.24903 0H17.749C19.2678 0 20.499 1.23122 20.499 2.75V12.25C20.499 13.7688 19.2678 15 17.749 15H8.49903V14.0005C8.61903 13.8408 8.72963 13.6737 8.83013 13.5H17.749C18.4394 13.5 18.999 12.9404 18.999 12.25V2.75C18.999 2.05964 18.4394 1.5 17.749 1.5H3.24903C2.55867 1.5 1.99903 2.05964 1.99903 2.75V6.66891C1.41367 7.0075 0.903317 7.4614 0.499027 7.9995V2.75ZM5.24903 4C4.83482 4 4.49903 4.33579 4.49903 4.75C4.49903 5.16421 4.83482 5.5 5.24903 5.5H15.749C16.1632 5.5 16.499 5.16421 16.499 4.75C16.499 4.33579 16.1632 4 15.749 4H5.24903ZM11.249 9C10.8348 9 10.499 9.3358 10.499 9.75C10.499 10.1642 10.8348 10.5 11.249 10.5H15.749C16.1632 10.5 16.499 10.1642 16.499 9.75C16.499 9.3358 16.1632 9 15.749 9H11.249ZM4.4987 7C2.2892 7 0.498047 8.7911 0.498047 11.0006C0.498047 13.2101 2.2892 15.0013 4.4987 15.0013C6.70819 15.0013 8.49933 13.2101 8.49933 11.0006C8.49933 8.7911 6.70819 7 4.4987 7ZM7.49979 15.001C6.6639 15.6291 5.62476 16.0013 4.4987 16.0013C3.37353 16.0013 2.33515 15.6297 1.49961 15.0025L1.49913 18.2487C1.49913 18.8195 2.10363 19.1681 2.58922 18.9176L2.67869 18.8635L4.49905 17.5912L6.3187 18.8635C6.7866 19.1904 7.41862 18.8946 7.49135 18.353L7.49826 18.2487L7.49979 15.001Z" fill="#565656"/>
</svg>
