<svg width="34" height="32" viewBox="0 0 34 32" fill="none" xmlns="http://www.w3.org/2000/svg">
<path d="M0.333665 4.58333C0.333665 2.05203 2.3857 0 4.917 0H29.0837C31.615 0 33.667 2.05203 33.667 4.58333V20.4167C33.667 22.948 31.615 25 29.0837 25H13.667V23.3342C13.867 23.068 14.0513 22.7895 14.2188 22.5H29.0837C30.2343 22.5 31.167 21.5673 31.167 20.4167V4.58333C31.167 3.43273 30.2343 2.5 29.0837 2.5H4.917C3.7664 2.5 2.83366 3.43273 2.83366 4.58333V11.1149C1.85806 11.6792 1.00748 12.4357 0.333665 13.3325V4.58333ZM8.25033 6.66667C7.55998 6.66667 7.00033 7.22632 7.00033 7.91667C7.00033 8.60702 7.55998 9.16667 8.25033 9.16667H25.7503C26.4407 9.16667 27.0003 8.60702 27.0003 7.91667C27.0003 7.22632 26.4407 6.66667 25.7503 6.66667H8.25033ZM18.2503 15C17.56 15 17.0003 15.5597 17.0003 16.25C17.0003 16.9403 17.56 17.5 18.2503 17.5H25.7503C26.4407 17.5 27.0003 16.9403 27.0003 16.25C27.0003 15.5597 26.4407 15 25.7503 15H18.2503ZM6.99978 11.6667C3.31728 11.6667 0.332031 14.6518 0.332031 18.3343C0.332031 22.0168 3.31728 25.0022 6.99978 25.0022C10.6823 25.0022 13.6675 22.0168 13.6675 18.3343C13.6675 14.6518 10.6823 11.6667 6.99978 11.6667ZM12.0016 25.0017C10.6084 26.0485 8.87655 26.6688 6.99978 26.6688C5.1245 26.6688 3.39386 26.0495 2.0013 25.0042L2.0005 30.4145C2.0005 31.3658 3.008 31.9468 3.81731 31.5293L3.96643 31.4392L7.00036 29.3187L10.0331 31.4392C10.8129 31.984 11.8663 31.491 11.9875 30.5883L11.999 30.4145L12.0016 25.0017Z" fill="#189A40"/>
</svg>
