<svg width="20" height="22" viewBox="0 0 20 22" fill="none" xmlns="http://www.w3.org/2000/svg">
<path d="M5.42461 17.7751C5.25918 17.2764 5.11365 16.7767 4.98803 16.2761C4.86242 15.7754 4.75794 15.2584 4.67461 14.7251L3.22461 15.7001V18.6751L5.42461 17.7751ZM9.57461 3.5751C8.47461 4.89176 7.71211 6.19481 7.28711 7.48425C6.86211 8.77368 6.64961 10.2862 6.64961 12.0219C6.64961 12.724 6.74128 13.5168 6.92461 14.4001C7.10794 15.2834 7.38201 16.2834 7.74681 17.4001H12.2496C12.6163 16.2834 12.8913 15.2834 13.0746 14.4001C13.2579 13.5168 13.3496 12.724 13.3496 12.0219C13.3496 10.2862 13.1371 8.77368 12.7121 7.48425C12.2871 6.19481 11.5246 4.89176 10.4246 3.5751C10.3623 3.5251 10.2957 3.48343 10.2248 3.4501C10.1539 3.41676 10.0779 3.4001 9.99684 3.4001C9.91579 3.4001 9.84045 3.41676 9.77083 3.4501C9.7012 3.48343 9.63579 3.5251 9.57461 3.5751ZM9.99209 11.6501C9.55002 11.6501 9.17409 11.4959 8.86429 11.1874C8.5545 10.8789 8.39961 10.4956 8.39961 10.0374C8.39961 9.57919 8.55732 9.19593 8.87274 8.8876C9.18815 8.57926 9.56732 8.4251 10.0102 8.4251C10.4532 8.4251 10.8288 8.5825 11.1371 8.8973C11.4454 9.21211 11.5996 9.59056 11.5996 10.0326C11.5996 10.4943 11.4422 10.8793 11.1274 11.1876C10.8126 11.4959 10.4342 11.6501 9.99209 11.6501ZM14.5746 17.7751L16.7746 18.6751V15.7001L15.3246 14.7251C15.2413 15.2584 15.1368 15.7754 15.0112 16.2761C14.8856 16.7767 14.74 17.2764 14.5746 17.7751ZM10.8496 0.450098C12.5496 2.18343 13.7871 3.9626 14.5621 5.7876C15.3371 7.6126 15.7246 9.59176 15.7246 11.7251V12.1251L18.0996 13.7251C18.4362 13.9439 18.6953 14.2246 18.877 14.5671C19.0588 14.9096 19.1496 15.2789 19.1496 15.6751V20.4251C19.1496 20.8395 18.9788 21.164 18.6371 21.3984C18.2954 21.6329 17.9329 21.6751 17.5496 21.5251L13.1929 19.7751H6.79961L2.47461 21.5251C2.07461 21.6751 1.70378 21.6329 1.36211 21.3984C1.02044 21.164 0.849609 20.8395 0.849609 20.4251V15.6751C0.849609 15.2789 0.940468 14.9096 1.12218 14.5671C1.3039 14.2246 1.56304 13.9439 1.89961 13.7251L4.29961 12.1251V11.7751C4.29961 9.60843 4.68294 7.6126 5.44961 5.7876C6.21628 3.9626 7.44961 2.18343 9.14961 0.450098C9.26628 0.333431 9.40169 0.245931 9.55586 0.187598C9.71003 0.129264 9.86003 0.100098 10.0059 0.100098C10.1517 0.100098 10.2996 0.129264 10.4496 0.187598C10.5996 0.245931 10.7329 0.333431 10.8496 0.450098Z" fill="#565656"/>
</svg>
