<svg width="21" height="20" viewBox="0 0 21 20" fill="none" xmlns="http://www.w3.org/2000/svg">
<path d="M20.5 11.5C20.5 13.26 19.2 14.72 17.5 14.96V18C17.5 18.5304 17.2893 19.0391 16.9142 19.4142C16.5391 19.7893 16.0304 20 15.5 20H11.7V19.7C11.7 18.9839 11.4155 18.2972 10.9092 17.7908C10.4028 17.2845 9.71608 17 9 17C7.5 17 6.3 18.21 6.3 19.7V20H2.5C1.96957 20 1.46086 19.7893 1.08579 19.4142C0.710714 19.0391 0.5 18.5304 0.5 18V14.2H0.8C2.29 14.2 3.5 13 3.5 11.5C3.5 10 2.29 8.8 0.8 8.8H0.5V5C0.5 4.46957 0.710714 3.96086 1.08579 3.58579C1.46086 3.21071 1.96957 3 2.5 3H5.54C5.78 1.3 7.24 0 9 0C10.76 0 12.22 1.3 12.46 3H15.5C16.0304 3 16.5391 3.21071 16.9142 3.58579C17.2893 3.96086 17.5 4.46957 17.5 5V8.04C19.2 8.28 20.5 9.74 20.5 11.5ZM15.5 13H17C17.3978 13 17.7794 12.842 18.0607 12.5607C18.342 12.2794 18.5 11.8978 18.5 11.5C18.5 11.1022 18.342 10.7206 18.0607 10.4393C17.7794 10.158 17.3978 10 17 10H15.5V5H10.5V3.5C10.5 3.10218 10.342 2.72064 10.0607 2.43934C9.77936 2.15804 9.39782 2 9 2C8.60218 2 8.22064 2.15804 7.93934 2.43934C7.65804 2.72064 7.5 3.10218 7.5 3.5V5H2.5V7.12C4.26 7.8 5.5 9.5 5.5 11.5C5.5 13.5 4.25 15.2 2.5 15.88V18H4.62C4.96267 17.1168 5.56425 16.3577 6.34586 15.8224C7.12747 15.287 8.05263 15.0004 9 15C11 15 12.7 16.25 13.38 18H15.5V13Z" fill="#189A40"/>
</svg>
