<svg width="22" height="20" viewBox="0 0 22 20" fill="none" xmlns="http://www.w3.org/2000/svg">
<path d="M12.2089 1.10215C11.7138 0.0987592 10.283 0.0987692 9.78776 1.10215L7.42985 5.87985L2.15734 6.64598C1.05004 6.80688 0.607906 8.16767 1.40915 8.94866L5.22438 12.6675L4.32372 17.9188C4.13457 19.0216 5.29211 19.8626 6.28249 19.3419L10.9984 16.8626L15.7142 19.3419C16.7046 19.8626 17.8621 19.0216 17.673 17.9188L16.7723 12.6675L20.5876 8.94866C21.3888 8.16767 20.9467 6.80688 19.8394 6.64598L14.5669 5.87985L12.2089 1.10215ZM8.74004 6.6144L10.9984 2.03853L13.2567 6.6144C13.4533 7.01285 13.8334 7.28901 14.2731 7.35291L19.3229 8.08667L15.6688 11.6486C15.3507 11.9587 15.2055 12.4054 15.2806 12.8434L16.1432 17.8728L11.6266 15.4982C11.2333 15.2914 10.7635 15.2914 10.3702 15.4982L5.85351 17.8728L6.71611 12.8434C6.79122 12.4054 6.64603 11.9587 6.32785 11.6486L2.67381 8.08667L7.72358 7.35291C8.16329 7.28901 8.5434 7.01285 8.74004 6.6144ZM0.164378 1.78101C-0.0943818 2.10445 -0.0419409 2.57642 0.281508 2.83518L2.7815 4.83517C3.10494 5.09393 3.5769 5.04149 3.83566 4.71804C4.09442 4.39459 4.04198 3.92263 3.71853 3.66387L1.21854 1.66388C0.895095 1.40512 0.423127 1.45756 0.164378 1.78101ZM21.8356 16.218C22.0944 15.8945 22.0419 15.4225 21.7185 15.1638L19.2185 13.1638C18.895 12.905 18.4231 12.9575 18.1643 13.2809C17.9055 13.6044 17.958 14.0763 18.2814 14.3351L20.7814 16.3351C21.1049 16.5938 21.5768 16.5414 21.8356 16.218ZM0.281508 15.1638C-0.0419409 15.4225 -0.0943818 15.8945 0.164378 16.218C0.423127 16.5414 0.895095 16.5938 1.21854 16.3351L3.71853 14.3351C4.04198 14.0763 4.09442 13.6044 3.83566 13.2809C3.5769 12.9575 3.10494 12.905 2.7815 13.1638L0.281508 15.1638ZM21.8356 1.78101C22.0944 2.10445 22.0419 2.57642 21.7185 2.83518L19.2185 4.83517C18.895 5.09393 18.4231 5.04149 18.1643 4.71804C17.9055 4.39459 17.958 3.92263 18.2814 3.66387L20.7814 1.66388C21.1049 1.40512 21.5768 1.45756 21.8356 1.78101Z" fill="#565656"/>
</svg>
