<svg width="13" height="12" viewBox="0 0 13 12" fill="none" xmlns="http://www.w3.org/2000/svg">
<path d="M7.55208 0V1.33333H9.94542L3.39208 7.88667L4.33208 8.82667L10.8854 2.27333V4.66667H12.2188V0M10.8854 10.6667H1.55208V1.33333H6.21875V0H1.55208C1.19846 0 0.859323 0.140476 0.609274 0.390524C0.359226 0.640573 0.21875 0.979711 0.21875 1.33333V10.6667C0.21875 11.0203 0.359226 11.3594 0.609274 11.6095C0.859323 11.8595 1.19846 12 1.55208 12H10.8854C11.239 12 11.5782 11.8595 11.8282 11.6095C12.0783 11.3594 12.2188 11.0203 12.2188 10.6667V6H10.8854V10.6667Z" fill="#565656"/>
</svg>
