<svg width="22" height="22" viewBox="0 0 22 22" fill="none" xmlns="http://www.w3.org/2000/svg">
<g clip-path="url(#clip0_4091_607)">
<rect width="22" height="22" rx="11" fill="#FBC329"/>
<path d="M8.96297 6.51852C8.96297 6.19621 9.05854 5.88113 9.23761 5.61314C9.41667 5.34515 9.67119 5.13628 9.96896 5.01294C10.2667 4.88959 10.5944 4.85732 10.9105 4.9202C11.2266 4.98308 11.517 5.13829 11.7449 5.3662C11.9728 5.5941 12.128 5.88448 12.1909 6.20059C12.2538 6.51671 12.2215 6.84437 12.0982 7.14215C11.9748 7.43992 11.766 7.69444 11.498 7.8735C11.23 8.05257 10.9149 8.14815 10.5926 8.14815C10.1604 8.14815 9.74589 7.97645 9.44027 7.67084C9.13466 7.36522 8.96297 6.95072 8.96297 6.51852ZM22 11C22 13.1756 21.3549 15.3023 20.1462 17.1113C18.9375 18.9202 17.2195 20.3301 15.2095 21.1627C13.1995 21.9952 10.9878 22.2131 8.85401 21.7886C6.72022 21.3642 4.76021 20.3165 3.22183 18.7782C1.68345 17.2398 0.635804 15.2798 0.211367 13.146C-0.213071 11.0122 0.00476615 8.80047 0.83733 6.79048C1.66989 4.78049 3.07979 3.06253 4.88873 1.85383C6.69767 0.645139 8.82441 0 11 0C13.9164 0.00323504 16.7124 1.1632 18.7746 3.2254C20.8368 5.2876 21.9968 8.08361 22 11ZM19.5556 11C19.5556 9.30787 19.0538 7.65374 18.1137 6.24679C17.1736 4.83983 15.8374 3.74325 14.2741 3.0957C12.7107 2.44815 10.9905 2.27872 9.3309 2.60884C7.67128 2.93895 6.14683 3.75379 4.95031 4.95031C3.7538 6.14682 2.93896 7.67128 2.60884 9.33089C2.27872 10.9905 2.44815 12.7107 3.0957 14.2741C3.74325 15.8374 4.83984 17.1736 6.24679 18.1137C7.65375 19.0538 9.30787 19.5556 11 19.5556C13.2683 19.5531 15.4431 18.651 17.047 17.047C18.651 15.4431 19.5531 13.2683 19.5556 11ZM12.2222 14.7359V11.4074C12.2222 10.8671 12.0076 10.349 11.6256 9.967C11.2436 9.58498 10.7254 9.37037 10.1852 9.37037C9.89655 9.36994 9.61707 9.47167 9.39625 9.65756C9.17544 9.84344 9.02753 10.1015 8.97874 10.386C8.92994 10.6704 8.9834 10.963 9.12965 11.2119C9.2759 11.4607 9.5055 11.6498 9.77778 11.7456V15.0741C9.77778 15.6143 9.9924 16.1325 10.3744 16.5145C10.7564 16.8965 11.2746 17.1111 11.8148 17.1111C12.1035 17.1115 12.3829 17.0098 12.6037 16.8239C12.8246 16.638 12.9725 16.38 13.0213 16.0955C13.0701 15.811 13.0166 15.5185 12.8704 15.2696C12.7241 15.0208 12.4945 14.8317 12.2222 14.7359Z" fill="#565656"/>
</g>
<defs>
<clipPath id="clip0_4091_607">
<rect width="22" height="22" rx="11" fill="white"/>
</clipPath>
</defs>
</svg>
