<svg width="29" height="34" viewBox="0 0 29 34" fill="none" xmlns="http://www.w3.org/2000/svg">
<path d="M11.5687 11.346L13.4027 7.62999C13.8172 6.79001 15.015 6.79001 15.4295 7.62999L17.2635 11.346L21.3643 11.9419C22.2913 12.0766 22.6613 13.2157 21.9907 13.8695L19.0232 16.762L19.7238 20.8463C19.8822 21.7695 18.913 22.4737 18.084 22.0377L14.416 20.1093L10.7482 22.0377C9.91905 22.4737 8.95002 21.7695 9.10837 20.8463L9.80887 16.762L6.84146 13.8695C6.1707 13.2157 6.54085 12.0766 7.46782 11.9419L11.5687 11.346ZM13.3327 12.8791C13.168 13.2127 12.8498 13.4439 12.4817 13.4974L10.059 13.8493L11.812 15.5582C12.0783 15.8178 12.2 16.192 12.137 16.5585L11.7232 18.9715L13.8902 17.8322C14.2193 17.6592 14.6127 17.6592 14.942 17.8322L17.1088 18.9715L16.695 16.5585C16.6322 16.192 16.7537 15.8178 17.02 15.5582L18.7732 13.8493L16.3505 13.4974C15.9823 13.4439 15.6642 13.2127 15.4995 12.8791L14.416 10.6838L13.3327 12.8791ZM4.83268 0.333344C2.5315 0.333344 0.666016 2.19883 0.666016 4.50001V29.5C0.666016 31.8012 2.5315 33.6667 4.83268 33.6667H26.916C27.6063 33.6667 28.166 33.107 28.166 32.4167C28.166 31.7263 27.6063 31.1667 26.916 31.1667H4.83268C3.91222 31.1667 3.16602 30.4205 3.16602 29.5H26.916C27.6063 29.5 28.166 28.9403 28.166 28.25V4.50001C28.166 2.19883 26.3005 0.333344 23.9993 0.333344H4.83268ZM25.666 27H3.16602V4.50001C3.16602 3.57954 3.91222 2.83334 4.83268 2.83334H23.9993C24.9198 2.83334 25.666 3.57954 25.666 4.50001V27Z" fill="#189A40"/>
</svg>
