<svg width="5" height="16" viewBox="0 0 5 16" fill="none" xmlns="http://www.w3.org/2000/svg">
<path d="M3.16797 2C3.16797 2.54772 2.71568 3 2.16797 3C1.62025 3 1.16797 2.54772 1.16797 2C1.16797 1.45228 1.62025 1 2.16797 1C2.71568 1 3.16797 1.45228 3.16797 2ZM1.16797 8C1.16797 7.45228 1.62025 7 2.16797 7C2.71568 7 3.16797 7.45228 3.16797 8C3.16797 8.54772 2.71568 9 2.16797 9C1.62025 9 1.16797 8.54772 1.16797 8ZM1.16797 14C1.16797 13.4523 1.62025 13 2.16797 13C2.71568 13 3.16797 13.4523 3.16797 14C3.16797 14.5477 2.71568 15 2.16797 15C1.62025 15 1.16797 14.5477 1.16797 14Z" stroke="#49454F" stroke-width="2"/>
</svg>
