<svg width="26" height="26" viewBox="0 0 26 26" fill="none" xmlns="http://www.w3.org/2000/svg">
<path d="M13.649 16.6117C14.4202 16.6117 15.0786 16.3513 15.6242 15.8303C16.1697 15.3093 16.4424 14.6716 16.4424 13.917V6.9193H18.8691C19.1089 6.9193 19.31 6.83635 19.4722 6.67046C19.6345 6.50456 19.7156 6.29899 19.7156 6.05375C19.7156 5.8125 19.6345 5.61193 19.4722 5.45203C19.31 5.29214 19.1089 5.21219 18.8691 5.21219H16.1603C15.9204 5.21219 15.7194 5.29331 15.5571 5.45556C15.3949 5.61781 15.3138 5.81885 15.3138 6.05869V11.7302C15.1257 11.5609 14.8845 11.4293 14.5904 11.3352C14.2962 11.2412 13.9824 11.1941 13.649 11.1941C12.9142 11.1941 12.2932 11.4515 11.7858 11.9663C11.2785 12.4811 11.0248 13.1113 11.0248 13.8568C11.0248 14.6024 11.2785 15.2479 11.7858 15.7935C12.2932 16.339 12.9142 16.6117 13.649 16.6117ZM7.52596 21.1264C6.79138 21.1264 6.16568 20.868 5.64884 20.3512C5.13201 19.8343 4.87359 19.2086 4.87359 18.474V3.18059C4.87359 2.43824 5.13201 1.8059 5.64884 1.28355C6.16568 0.761183 6.79138 0.5 7.52596 0.5H22.8194C23.5618 0.5 24.1941 0.761183 24.7165 1.28355C25.2388 1.8059 25.5 2.43824 25.5 3.18059V18.474C25.5 19.2086 25.2388 19.8343 24.7165 20.3512C24.1941 20.868 23.5618 21.1264 22.8194 21.1264H7.52596ZM7.52596 18.474H22.8194V3.18059H7.52596V18.474ZM3.18059 25.5C2.43824 25.5 1.8059 25.2388 1.28355 24.7165C0.761183 24.1941 0.5 23.5618 0.5 22.8194V6.19977C0.5 5.82825 0.628621 5.51434 0.885863 5.25804C1.14312 5.00174 1.46291 4.87359 1.84523 4.87359C2.22757 4.87359 2.54571 5.00174 2.79966 5.25804C3.05361 5.51434 3.18059 5.82825 3.18059 6.19977V22.8194H19.8002C20.1717 22.8194 20.4857 22.948 20.742 23.2053C20.9983 23.4625 21.1264 23.7823 21.1264 24.1646C21.1264 24.547 20.9983 24.8651 20.742 25.1191C20.4857 25.373 20.1717 25.5 19.8002 25.5H3.18059Z" fill="#189A40"/>
</svg>
