<svg width="41" height="41" viewBox="0 0 41 41" fill="none" xmlns="http://www.w3.org/2000/svg">
<rect x="0.5" y="0.328644" width="40" height="40" rx="20" fill="#FB7529"/>
<path d="M22.5 29.0536V27.0036C24 26.5703 25.2083 25.737 26.125 24.5036C27.0417 23.2703 27.5 21.8703 27.5 20.3036C27.5 18.737 27.0417 17.337 26.125 16.1037C25.2083 14.8703 24 14.037 22.5 13.6036V11.5536C24.5667 12.0203 26.25 13.0661 27.55 14.6911C28.85 16.3162 29.5 18.187 29.5 20.3036C29.5 22.4203 28.85 24.2912 27.55 25.9162C26.25 27.5412 24.5667 28.587 22.5 29.0536ZM11.5 23.3287V17.3286H15.5L20.5 12.3286V28.3286L15.5 23.3287H11.5ZM22.5 24.3287V16.2786C23.2833 16.6453 23.8958 17.1953 24.3375 17.9286C24.7792 18.662 25 19.462 25 20.3287C25 21.1786 24.7792 21.9662 24.3375 22.6911C23.8958 23.4162 23.2833 23.962 22.5 24.3287ZM18.5 17.1786L16.35 19.3286H13.5V21.3287H16.35L18.5 23.4787V17.1786Z" fill="white"/>
</svg>
