<?xml version="1.0" encoding="iso-8859-1"?>
<!-- Uploaded to: SVG Repo, www.svgrepo.com, Generator: SVG Repo Mixer Tools -->
<!DOCTYPE svg PUBLIC "-//W3C//DTD SVG 1.1//EN" "http://www.w3.org/Graphics/SVG/1.1/DTD/svg11.dtd">
<svg fill="#000000" height="800px" width="800px" version="1.1" id="Capa_1" xmlns="http://www.w3.org/2000/svg" xmlns:xlink="http://www.w3.org/1999/xlink" 
	 viewBox="0 0 297 297" xml:space="preserve">
<g>
	<path d="M286.542,17.256H10.458C4.683,17.256,0,21.938,0,27.713v241.574c0,5.775,4.683,10.457,10.458,10.457h276.084
		c5.775,0,10.458-4.682,10.458-10.457V27.713C297,21.938,292.317,17.256,286.542,17.256z M276.085,38.172v46.537H20.915V38.172
		H276.085z M210.725,189.809v-82.617h13.595v82.617H210.725z M200.267,210.725h6.797v48.106h-48.105v-48.106h6.797
		c5.775,0,10.458-4.684,10.458-10.459v-94.643h13.597v94.643C189.81,206.041,194.491,210.725,200.267,210.725z M72.682,189.809
		v-82.617h13.595v82.617H72.682z M96.734,210.725c5.775,0,10.458-4.684,10.458-10.459v-94.643h13.595v94.643
		c0,5.775,4.683,10.459,10.458,10.459h6.797v48.106H89.938v-48.106H96.734z M141.702,189.809v-82.617h13.596v82.617H141.702z
		 M20.915,105.623h30.851v94.643c0,5.775,4.683,10.459,10.458,10.459h6.799v48.106H20.915V105.623z M227.979,258.83v-48.106h6.799
		c5.775,0,10.458-4.684,10.458-10.459v-94.643h30.85V258.83H227.979z"/>
	<path d="M234.776,72.682h17.255c5.775,0,10.458-4.682,10.458-10.457s-4.683-10.459-10.458-10.459h-17.255
		c-5.775,0-10.458,4.684-10.458,10.459S229.001,72.682,234.776,72.682z"/>
	<path d="M183.011,72.682h17.255c5.775,0,10.458-4.682,10.458-10.457s-4.683-10.459-10.458-10.459h-17.255
		c-5.775,0-10.458,4.684-10.458,10.459S177.235,72.682,183.011,72.682z"/>
</g>
</svg>