<svg width="60" height="60" viewBox="0 0 60 60" fill="none" xmlns="http://www.w3.org/2000/svg">
<path d="M31.298 37.2235C32.8405 37.2235 34.1573 36.7025 35.2483 35.6606C36.3394 34.6186 36.8849 33.3431 36.8849 31.8341V17.8386H41.7381C42.2178 17.8386 42.6199 17.6727 42.9444 17.3409C43.2689 17.0091 43.4312 16.598 43.4312 16.1075C43.4312 15.625 43.2689 15.2239 42.9444 14.9041C42.6199 14.5843 42.2178 14.4244 41.7381 14.4244H36.3205C35.8409 14.4244 35.4388 14.5866 35.1143 14.9111C34.7898 15.2356 34.6275 15.6377 34.6275 16.1174V27.4605C34.2513 27.1219 33.769 26.8585 33.1807 26.6704C32.5923 26.4823 31.9647 26.3883 31.298 26.3883C29.8284 26.3883 28.5863 26.903 27.5717 27.9326C26.557 28.9622 26.0497 30.2225 26.0497 31.7137C26.0497 33.2048 26.557 34.4959 27.5717 35.5869C28.5863 36.678 29.8284 37.2235 31.298 37.2235ZM19.0519 46.2528C17.5828 46.2528 16.3314 45.736 15.2977 44.7023C14.264 43.6686 13.7472 42.4172 13.7472 40.9481V10.3612C13.7472 8.87649 14.264 7.61179 15.2977 6.5671C16.3314 5.52237 17.5828 5 19.0519 5H49.6388C51.1235 5 52.3882 5.52237 53.4329 6.5671C54.4776 7.61179 55 8.87649 55 10.3612V40.9481C55 42.4172 54.4776 43.6686 53.4329 44.7023C52.3882 45.736 51.1235 46.2528 49.6388 46.2528H19.0519ZM19.0519 40.9481H49.6388V10.3612H19.0519V40.9481ZM10.3612 55C8.87649 55 7.61179 54.4776 6.5671 53.4329C5.52237 52.3882 5 51.1235 5 49.6388V16.3995C5 15.6565 5.25724 15.0287 5.77173 14.5161C6.28625 14.0035 6.92583 13.7472 7.69046 13.7472C8.45514 13.7472 9.09142 14.0035 9.59932 14.5161C10.1072 15.0287 10.3612 15.6565 10.3612 16.3995V49.6388H43.6005C44.3435 49.6388 44.9713 49.8961 45.4839 50.4106C45.9965 50.9251 46.2528 51.5647 46.2528 52.3293C46.2528 53.094 45.9965 53.7302 45.4839 54.2382C44.9713 54.7461 44.3435 55 43.6005 55H10.3612Z" fill="white"/>
</svg>
