<svg width="19" height="19" viewBox="0 0 19 19" fill="none" xmlns="http://www.w3.org/2000/svg">
<path d="M11.5 18.0536V16.0036C13 15.5703 14.2083 14.737 15.125 13.5036C16.0417 12.2703 16.5 10.8703 16.5 9.30365C16.5 7.73698 16.0417 6.33698 15.125 5.10365C14.2083 3.87032 13 3.03698 11.5 2.60365V0.55365C13.5667 1.02032 15.25 2.06615 16.55 3.69115C17.85 5.31615 18.5 7.18698 18.5 9.30365C18.5 11.4203 17.85 13.2912 16.55 14.9162C15.25 16.5412 13.5667 17.587 11.5 18.0536ZM0.5 12.3287V6.32865H4.5L9.5 1.32865V17.3286L4.5 12.3287H0.5ZM11.5 13.3287V5.27865C12.2833 5.64532 12.8958 6.19532 13.3375 6.92865C13.7792 7.66198 14 8.46198 14 9.32865C14 10.1786 13.7792 10.9662 13.3375 11.6911C12.8958 12.4162 12.2833 12.962 11.5 13.3287ZM7.5 6.17865L5.35 8.32865H2.5V10.3287H5.35L7.5 12.4787V6.17865Z" fill="white"/>
</svg>
