<svg width="23" height="22" viewBox="0 0 23 22" fill="none" xmlns="http://www.w3.org/2000/svg">
<path d="M21.834 4H1.83398C1.56877 4 1.31441 4.10536 1.12688 4.29289C0.939341 4.48043 0.833984 4.73478 0.833984 5V9C0.835724 9.61894 1.02886 10.2222 1.38692 10.7271C1.74498 11.2319 2.25043 11.6137 2.83398 11.82V21C2.83398 21.2652 2.93934 21.5196 3.12688 21.7071C3.31441 21.8946 3.56877 22 3.83398 22H19.834C20.0992 22 20.3536 21.8946 20.5411 21.7071C20.7286 21.5196 20.834 21.2652 20.834 21V11.82C21.4175 11.6137 21.923 11.2319 22.281 10.7271C22.6391 10.2222 22.8322 9.61894 22.834 9V5C22.834 4.73478 22.7286 4.48043 22.5411 4.29289C22.3536 4.10536 22.0992 4 21.834 4ZM14.834 6H16.834V9C16.834 9.26522 16.7286 9.51957 16.5411 9.70711C16.3536 9.89464 16.0992 10 15.834 10C15.5688 10 15.3144 9.89464 15.1269 9.70711C14.9393 9.51957 14.834 9.26522 14.834 9V6ZM10.834 6H12.834V9C12.834 9.26522 12.7286 9.51957 12.5411 9.70711C12.3536 9.89464 12.0992 10 11.834 10C11.5688 10 11.3144 9.89464 11.1269 9.70711C10.9393 9.51957 10.834 9.26522 10.834 9V6ZM6.83398 6H8.83398V9C8.83398 9.26522 8.72863 9.51957 8.54109 9.70711C8.35355 9.89464 8.0992 10 7.83398 10C7.56877 10 7.31441 9.89464 7.12688 9.70711C6.93934 9.51957 6.83398 9.26522 6.83398 9V6ZM3.83398 10C3.56877 10 3.31441 9.89464 3.12688 9.70711C2.93934 9.51957 2.83398 9.26522 2.83398 9V6H4.83398V9C4.83398 9.26522 4.72863 9.51957 4.54109 9.70711C4.35355 9.89464 4.0992 10 3.83398 10ZM13.834 20H9.83398V18C9.83398 17.4696 10.0447 16.9609 10.4198 16.5858C10.7948 16.2107 11.3036 16 11.834 16C12.3644 16 12.8731 16.2107 13.2482 16.5858C13.6233 16.9609 13.834 17.4696 13.834 18V20ZM18.834 20H15.834V18C15.834 16.9391 15.4126 15.9217 14.6624 15.1716C13.9123 14.4214 12.8949 14 11.834 14C10.7731 14 9.7557 14.4214 9.00556 15.1716C8.25541 15.9217 7.83398 16.9391 7.83398 18V20H4.83398V11.82C5.20155 11.6836 5.54062 11.4801 5.83398 11.22C6.38401 11.712 7.09605 11.9839 7.83398 11.9839C8.57192 11.9839 9.28396 11.712 9.83398 11.22C10.384 11.712 11.0961 11.9839 11.834 11.9839C12.5719 11.9839 13.284 11.712 13.834 11.22C14.384 11.712 15.0961 11.9839 15.834 11.9839C16.5719 11.9839 17.284 11.712 17.834 11.22C18.1273 11.4801 18.4664 11.6836 18.834 11.82V20ZM20.834 9C20.834 9.26522 20.7286 9.51957 20.5411 9.70711C20.3536 9.89464 20.0992 10 19.834 10C19.5688 10 19.3144 9.89464 19.1269 9.70711C18.9393 9.51957 18.834 9.26522 18.834 9V6H20.834V9ZM4.13398 2H19.834C20.0992 2 20.3536 1.89464 20.5411 1.70711C20.7286 1.51957 20.834 1.26522 20.834 1C20.834 0.734784 20.7286 0.48043 20.5411 0.292893C20.3536 0.105357 20.0992 0 19.834 0H4.13398C3.86877 0 3.61441 0.105357 3.42688 0.292893C3.23934 0.48043 3.13398 0.734784 3.13398 1C3.13398 1.26522 3.23934 1.51957 3.42688 1.70711C3.61441 1.89464 3.86877 2 4.13398 2Z" fill="#FB7529"/>
</svg>
