<svg width="40" height="40" viewBox="0 0 40 40" fill="none" xmlns="http://www.w3.org/2000/svg">
<path d="M15.5251 20.32H13.2851V19H19.3851V20.32H17.1451V26H15.5251V20.32ZM22.5079 26.12C21.9546 26.12 21.4179 26.0467 20.8979 25.9C20.3846 25.7467 19.9713 25.55 19.6579 25.31L20.2079 24.09C20.5079 24.31 20.8646 24.4867 21.2779 24.62C21.6913 24.7533 22.1046 24.82 22.5179 24.82C22.9779 24.82 23.3179 24.7533 23.5379 24.62C23.7579 24.48 23.8679 24.2967 23.8679 24.07C23.8679 23.9033 23.8013 23.7667 23.6679 23.66C23.5413 23.5467 23.3746 23.4567 23.1679 23.39C22.9679 23.3233 22.6946 23.25 22.3479 23.17C21.8146 23.0433 21.3779 22.9167 21.0379 22.79C20.6979 22.6633 20.4046 22.46 20.1579 22.18C19.9179 21.9 19.7979 21.5267 19.7979 21.06C19.7979 20.6533 19.9079 20.2867 20.1279 19.96C20.3479 19.6267 20.6779 19.3633 21.1179 19.17C21.5646 18.9767 22.1079 18.88 22.7479 18.88C23.1946 18.88 23.6313 18.9333 24.0579 19.04C24.4846 19.1467 24.8579 19.3 25.1779 19.5L24.6779 20.73C24.0313 20.3633 23.3846 20.18 22.7379 20.18C22.2846 20.18 21.9479 20.2533 21.7279 20.4C21.5146 20.5467 21.4079 20.74 21.4079 20.98C21.4079 21.22 21.5313 21.4 21.7779 21.52C22.0313 21.6333 22.4146 21.7467 22.9279 21.86C23.4613 21.9867 23.8979 22.1133 24.2379 22.24C24.5779 22.3667 24.8679 22.5667 25.1079 22.84C25.3546 23.1133 25.4779 23.4833 25.4779 23.95C25.4779 24.35 25.3646 24.7167 25.1379 25.05C24.9179 25.3767 24.5846 25.6367 24.1379 25.83C23.6913 26.0233 23.1479 26.12 22.5079 26.12Z" fill="#FB7529"/>
<path d="M22.1981 4.36825C21.2977 2.54391 18.6963 2.54393 17.7959 4.36825L13.5088 13.055L3.92244 14.448C1.90917 14.7405 1.10528 17.2146 2.5621 18.6346L9.49887 25.3963L7.86131 34.944C7.5174 36.9491 9.62201 38.4782 11.4227 37.5315L19.997 33.0237L28.5713 37.5315C30.3721 38.4782 32.4766 36.9491 32.1328 34.944L30.4951 25.3963L37.432 18.6346C38.8887 17.2146 38.0849 14.7405 36.0717 14.448L26.4853 13.055L22.1981 4.36825ZM15.891 14.3905L19.997 6.07077L24.1032 14.3905C24.4606 15.115 25.1517 15.6171 25.9512 15.7333L35.1326 17.0674L28.4888 23.5435C27.9104 24.1073 27.6464 24.9197 27.783 25.7161L29.3513 34.8604L21.1392 30.543C20.4241 30.167 19.5699 30.167 18.8548 30.543L10.6427 34.8604L12.2111 25.7161C12.3477 24.9197 12.0837 24.1073 11.5052 23.5435L4.86147 17.0674L14.0429 15.7333C14.8423 15.6171 15.5335 15.115 15.891 14.3905ZM0.298869 5.60255C-0.171603 6.19062 -0.0762562 7.04874 0.511832 7.51922L5.05727 11.1556C5.64534 11.626 6.50346 11.5307 6.97393 10.9426C7.4444 10.3545 7.34906 9.49641 6.76097 9.02594L2.21553 5.38959C1.62745 4.91912 0.769322 5.01446 0.298869 5.60255ZM39.7011 31.8517C40.1716 31.2635 40.0762 30.4053 39.4882 29.935L34.9428 26.2986C34.3546 25.8281 33.4966 25.9235 33.026 26.5115C32.5555 27.0997 32.651 27.9577 33.239 28.4282L37.7844 32.0646C38.3726 32.535 39.2306 32.4397 39.7011 31.8517ZM0.511832 29.935C-0.0762562 30.4053 -0.171603 31.2635 0.298869 31.8517C0.769322 32.4397 1.62745 32.535 2.21553 32.0646L6.76097 28.4282C7.34906 27.9577 7.4444 27.0997 6.97393 26.5115C6.50346 25.9235 5.64534 25.8281 5.05727 26.2986L0.511832 29.935ZM39.7011 5.60255C40.1716 6.19062 40.0762 7.04874 39.4882 7.51922L34.9428 11.1556C34.3546 11.626 33.4966 11.5307 33.026 10.9426C32.5555 10.3545 32.651 9.49641 33.239 9.02594L37.7844 5.38959C38.3726 4.91912 39.2306 5.01446 39.7011 5.60255Z" fill="#FB7529"/>
</svg>
