<svg width="40" height="35" viewBox="0 0 40 35" fill="none" xmlns="http://www.w3.org/2000/svg">
<path d="M22.1981 1.36825C21.2977 -0.456091 18.6963 -0.456073 17.7959 1.36825L13.5088 10.055L3.92244 11.448C1.90917 11.7405 1.10528 14.2146 2.5621 15.6346L9.49887 22.3963L7.86131 31.944C7.5174 33.9491 9.62201 35.4782 11.4227 34.5315L19.997 30.0237L28.5713 34.5315C30.3721 35.4782 32.4766 33.9491 32.1328 31.944L30.4951 22.3963L37.432 15.6346C38.8887 14.2146 38.0849 11.7405 36.0717 11.448L26.4853 10.055L22.1981 1.36825ZM15.891 11.3905L19.997 3.07077L24.1032 11.3905C24.4606 12.115 25.1517 12.6171 25.9512 12.7333L35.1326 14.0674L28.4888 20.5435C27.9104 21.1073 27.6464 21.9197 27.783 22.7161L29.3513 31.8604L21.1392 27.543C20.4241 27.167 19.5699 27.167 18.8548 27.543L10.6427 31.8604L12.2111 22.7161C12.3477 21.9197 12.0837 21.1073 11.5052 20.5435L4.86147 14.0674L14.0429 12.7333C14.8423 12.6171 15.5335 12.115 15.891 11.3905ZM0.298869 2.60255C-0.171603 3.19062 -0.0762562 4.04874 0.511832 4.51922L5.05727 8.15556C5.64534 8.62604 6.50346 8.53069 6.97393 7.9426C7.4444 7.35451 7.34906 6.49641 6.76097 6.02594L2.21553 2.38959C1.62745 1.91912 0.769322 2.01446 0.298869 2.60255ZM39.7011 28.8517C40.1716 28.2635 40.0762 27.4053 39.4882 26.935L34.9428 23.2986C34.3546 22.8281 33.4966 22.9235 33.026 23.5115C32.5555 24.0997 32.651 24.9577 33.239 25.4282L37.7844 29.0646C38.3726 29.535 39.2306 29.4397 39.7011 28.8517ZM0.511832 26.935C-0.0762562 27.4053 -0.171603 28.2635 0.298869 28.8517C0.769322 29.4397 1.62745 29.535 2.21553 29.0646L6.76097 25.4282C7.34906 24.9577 7.4444 24.0997 6.97393 23.5115C6.50346 22.9235 5.64534 22.8281 5.05727 23.2986L0.511832 26.935ZM39.7011 2.60255C40.1716 3.19062 40.0762 4.04874 39.4882 4.51922L34.9428 8.15556C34.3546 8.62604 33.4966 8.53069 33.026 7.9426C32.5555 7.35451 32.651 6.49641 33.239 6.02594L37.7844 2.38959C38.3726 1.91912 39.2306 2.01446 39.7011 2.60255Z" fill="#FB7529"/>
</svg>
