<svg width="130" height="28" viewBox="0 0 130 28" fill="none" xmlns="http://www.w3.org/2000/svg">
<g clip-path="url(#clip0_3649_1075)">
<path d="M1.96286 6.07371C2.44572 6.07371 3.30749 5.99993 4.55153 5.85573C5.79221 5.71152 7.12008 5.53378 8.53178 5.32921C9.94347 5.12464 10.8052 5.00726 11.1204 4.98714C12.1063 4.84293 13.29 4.74568 14.6648 4.69537H15.1007C15.9926 4.69537 16.6566 4.92342 17.0891 5.38287C17.5485 5.81884 17.7799 6.33529 17.7799 6.93895C17.7799 7.42187 17.6223 7.85448 17.3071 8.2435C16.9919 8.63252 16.5694 8.87063 16.0429 8.96789C15.9222 8.99136 15.3589 9.03496 14.3596 9.09532C13.3604 9.15569 12.4014 9.23282 11.4826 9.33008C10.5638 9.42733 10.0608 9.52459 9.96359 9.62184C9.76911 9.81635 9.78252 10.1517 10.0005 10.6346C10.1447 11.0706 10.2419 12.8178 10.2889 15.8831C10.2889 18.9483 10.5202 21.6144 10.9796 23.8814C11.0266 24.0525 11.0534 24.2671 11.0534 24.5354C11.0534 24.8708 10.8589 25.2363 10.4733 25.622C9.94347 26.1049 9.41367 26.3463 8.88051 26.3463C8.30376 26.3463 7.74713 26.0814 7.21732 25.5515C6.882 25.2162 6.65734 24.864 6.54668 24.5019C6.43938 24.1397 6.33543 23.4522 6.23819 22.4394C6.12083 21.2321 6.05712 19.5553 6.05712 17.4089V15.8529C6.05712 13.8742 5.97328 12.4858 5.80562 11.691L5.48036 10.2423H3.41815C2.49937 10.2423 1.88909 10.2054 1.5873 10.1349C1.28551 10.0612 0.99043 9.87001 0.702054 9.55477C0.242666 9.14563 0.0146484 8.6996 0.0146484 8.21668C0.0146484 7.73375 0.222547 7.22736 0.64505 6.76791C1.06755 6.31182 1.50682 6.08042 1.96621 6.08042L1.96286 6.07371Z" fill="#33A1D2"/>
<path d="M20.6708 1.22438C21.1034 0.741461 21.5862 0.5 22.116 0.5C22.6458 0.5 23.2025 0.791765 23.7088 1.36859C24.1179 1.85151 24.3258 2.26065 24.3258 2.59937C24.3258 2.7704 24.2889 3.02192 24.2185 3.36064C23.9268 5.09781 23.2494 5.9664 22.1898 5.9664C22.0926 5.9664 21.8981 5.94293 21.6131 5.89598C20.5266 5.65451 19.9834 4.76245 19.9834 3.21643C19.9834 2.42162 20.2114 1.75761 20.6708 1.22774V1.22438ZM21.7572 11.0673C22.2401 10.6581 22.7095 10.4535 23.1689 10.4535C23.6283 10.4535 24.0844 10.6816 24.5438 11.141C24.859 11.4563 25.0534 11.7883 25.1239 12.1371C25.1943 12.4858 25.2312 13.3276 25.2312 14.6523C25.2312 16.1245 25.3653 18.0294 25.6302 20.3702C25.7744 21.5037 25.8481 22.3354 25.8481 22.8686C25.8481 23.3516 25.7978 23.6769 25.704 23.8446C25.268 24.6662 24.641 25.0753 23.8228 25.0753C23.34 25.0753 22.9007 24.9076 22.5017 24.5689C22.106 24.2302 21.831 23.7708 21.6902 23.1939C21.5192 22.5199 21.3347 21.1181 21.1302 18.9952C20.9256 16.8724 20.8217 15.2056 20.8217 13.9983C20.8217 13.9011 20.8217 13.7703 20.8385 13.5992C20.8519 13.4316 20.8586 13.3242 20.8586 13.2739C20.9055 12.6468 20.9894 12.1874 21.1101 11.899C21.2308 11.6105 21.4487 11.3322 21.7639 11.0673H21.7572Z" fill="#33A1D2"/>
<path d="M28.8518 6.7243C29.2608 6.43254 29.6465 6.28833 30.0086 6.28833C30.4915 6.28833 30.9643 6.51638 31.4237 6.97582C31.7355 7.29106 31.93 7.59624 32.0004 7.89807C32.0708 8.19989 32.1077 8.8572 32.1077 9.87C32.1077 11.3422 32.2251 12.0767 32.4665 12.0767C32.8287 12.0767 33.895 11.6374 35.6688 10.7554C37.4427 9.8767 38.5593 9.22946 39.0187 8.82031C39.8368 8.14624 40.5108 7.80752 41.044 7.80752C41.262 7.80752 41.5168 7.86789 41.8052 7.98862C42.6736 8.47154 43.1096 9.07519 43.1096 9.79622C43.1096 10.4233 42.8044 11.0773 42.2042 11.7514C41.5034 12.4758 40.1621 13.3209 38.1871 14.2834C36.3495 15.1754 35.4374 15.7556 35.4374 16.0205C35.4374 16.0675 35.4609 16.1178 35.5112 16.1647C35.7292 16.3827 36.9866 16.9193 39.2936 17.7778C41.5939 18.633 43.294 19.183 44.3771 19.4245C45.487 19.6894 46.4058 19.8235 47.1267 19.8235C47.8476 19.8235 48.4244 20.0214 48.8469 20.4205C49.266 20.8196 49.4773 21.3327 49.4773 21.9598C49.4773 22.7077 49.256 23.2275 48.81 23.5159C48.3607 23.8043 47.5727 23.9519 46.4393 23.9519C45.1617 23.9519 43.2068 23.5293 40.5779 22.6842C37.5868 21.6949 35.7526 21.0543 35.0753 20.7659C34.0392 20.3299 33.4255 20.112 33.2277 20.112C33.1573 20.112 33.1204 20.1723 33.1204 20.2931C33.1204 20.5345 33.1908 20.8464 33.335 21.2321C33.6032 21.933 33.734 22.5836 33.734 23.1872C33.734 23.9116 33.4658 24.5488 32.9393 25.1055C32.4564 25.5884 32.044 25.8299 31.7087 25.8299C31.6349 25.8299 31.5041 25.8064 31.313 25.7561C30.2266 25.4643 29.5995 24.7903 29.4319 23.7305C29.3581 23.1269 29.1267 22.2348 28.7445 21.051C28.3588 19.7967 28.0906 17.419 27.9497 13.9212C27.8994 12.9084 27.876 11.5435 27.876 9.82975C27.876 8.55202 27.8994 7.86453 27.9497 7.76728C28.1174 7.35813 28.4192 7.00601 28.8551 6.71759L28.8518 6.7243Z" fill="#33A1D2"/>
<path d="M87.5401 7.77402C87.976 7.62981 88.4086 7.55603 88.8445 7.55603C90.0483 7.55603 91.1112 8.15968 92.0267 9.36363C92.7744 10.3764 93.4384 13.0794 94.0185 17.4693C94.3068 19.6425 94.451 21.1986 94.451 22.1376C94.451 23.2007 94.223 23.9485 93.7636 24.3811C93.3042 24.8406 92.7845 25.0686 92.2077 25.0686C91.631 25.0686 91.1716 24.8507 90.7625 24.418C90.4943 24.1766 90.3098 23.801 90.2025 23.2979C90.0952 22.7915 89.9644 21.7284 89.8236 20.112C89.438 16.2989 89.0289 13.9614 88.593 13.0929C88.4723 12.8514 88.375 12.7307 88.3013 12.7307C88.2275 12.7307 88.0967 12.8279 87.9056 13.0224C87.6139 13.3108 86.9399 14.4947 85.8769 16.5672C85.1526 18.016 84.6496 18.9315 84.3579 19.3172C84.0662 19.7028 83.647 20.0416 83.0937 20.33C82.4902 20.6653 82.0442 20.8364 81.7525 20.8364C81.6083 20.8364 81.3199 20.7525 80.884 20.5848C80.2335 20.2964 79.4823 19.7766 78.6407 19.0288C77.7957 18.2809 77.3262 17.9053 77.2256 17.9053C77.1083 17.9053 77.0479 18.2306 77.0479 18.8846C77.0479 20.1153 77.2022 21.3595 77.5174 22.6104C77.7353 23.5293 77.8426 24.0961 77.8426 24.3107C77.8426 24.5757 77.6984 24.901 77.4067 25.29C76.8736 26.0144 76.2867 26.3765 75.6329 26.3765C75.2741 26.3765 74.9321 26.2558 74.6236 26.0144C73.8959 25.461 73.4164 24.7601 73.175 23.915C72.9335 23.0699 72.8028 21.658 72.7793 19.6794C72.7793 17.9187 72.8162 16.7953 72.8866 16.3123C72.957 15.8294 73.2119 15.1419 73.6478 14.2499C74.4894 12.4389 75.4216 11.5334 76.4309 11.5334C77.3262 11.5334 78.3724 12.1874 79.5829 13.4886C80.666 14.5752 81.2562 15.1184 81.3568 15.1184C81.5479 15.1184 81.957 14.4544 82.5841 13.1297C83.1373 11.9694 83.9253 10.8493 84.9346 9.76271C85.9473 8.67614 86.8158 8.01548 87.5401 7.77402Z" fill="#FBC329"/>
<path d="M111.391 9.62183C111.777 9.21269 112.273 9.00812 112.873 9.00812C113.527 9.00812 114.07 9.23616 114.503 9.69561C114.818 10.0108 115.013 10.3294 115.083 10.6547C115.157 10.98 115.19 11.7212 115.19 12.8782C115.19 16.5236 114.476 19.6693 113.054 22.3253C112.33 23.6769 111.686 24.6595 111.12 25.2732C110.553 25.8902 109.835 26.4134 108.967 26.8494C108.122 27.2853 107.398 27.5 106.797 27.5C106.626 27.5 106.301 27.4765 105.818 27.4262C104.346 27.3055 103.018 26.8729 101.835 26.1216C100.651 25.3738 99.7489 24.4079 99.1218 23.2275C98.6624 22.3589 98.2332 21.2656 97.8375 19.9543C97.4385 18.6397 97.1904 17.5598 97.0931 16.7147C97.0194 15.7757 96.8618 14.7495 96.6237 13.6395C96.5231 13.1565 96.4795 12.734 96.4795 12.3718C96.4795 12.0331 96.5868 11.6977 96.8048 11.359C97.3144 10.5642 97.9281 10.1651 98.6524 10.1651C98.7731 10.1651 98.9542 10.1886 99.1956 10.2389C100.329 10.5038 101.016 11.6508 101.258 13.6764C101.499 15.7992 101.871 17.6437 102.381 19.2132C102.887 20.7793 103.431 21.7586 104.011 22.1442C104.782 22.6506 105.469 22.9055 106.073 22.9055C107.042 22.9055 107.931 22.2046 108.752 20.8062C109.862 18.9482 110.503 16.3894 110.67 13.1331C110.721 11.9023 110.788 11.0706 110.888 10.6346C110.985 10.1987 111.153 9.86329 111.395 9.62183H111.391Z" fill="#FBC329"/>
<path d="M123.838 7.37494C124.391 6.9658 125.129 6.76123 126.044 6.76123C126.866 6.76123 127.634 6.92891 128.341 7.26763C129.056 7.60299 129.518 8.05237 129.736 8.60572C129.904 9.06181 129.991 9.37705 129.991 9.54474C129.991 9.88345 129.76 10.2926 129.304 10.7755C128.891 11.235 128.254 11.463 127.386 11.463C126.832 11.463 126.487 11.4999 126.353 11.5703C126.222 11.6407 126.132 11.8118 126.081 12.0767V12.5831C126.081 13.5724 126.313 14.8166 126.772 16.309C127.181 17.6605 127.386 19.0489 127.386 20.4708C127.386 21.8928 127.181 22.9894 126.772 23.7641C125.783 25.6455 124.251 26.5878 122.175 26.5878C121.739 26.5878 121.414 26.5778 121.196 26.5509C119.144 26.333 117.94 25.7696 117.578 24.8507C117.41 24.3946 117.326 24.0693 117.326 23.8748C117.326 23.5595 117.541 23.137 117.977 22.6071C118.312 22.2449 118.614 22.0202 118.882 21.9364C119.147 21.8525 119.737 21.8089 120.656 21.8089H122.681L122.755 20.6519V20.4004C122.755 19.6056 122.587 18.5895 122.249 17.3587C121.813 15.8361 121.598 14.2968 121.598 12.7273V12.0734C121.598 11.2786 121.645 10.7051 121.739 10.353C121.84 10.0042 122.031 9.58833 122.319 9.10541C122.825 8.28713 123.332 7.70695 123.838 7.36824V7.37494Z" fill="#FBC329"/>
<path d="M70.1404 22.825C70.1404 22.7378 70.1304 22.6574 70.1136 22.5769C70.0331 22.0302 69.7615 21.3796 69.2753 20.6217C68.6214 19.5586 67.1628 16.9294 66.5123 15.2794C65.7477 13.398 65.3219 12.4187 65.2313 12.345C65.0503 12.1538 64.8055 11.6877 64.4903 10.9499C63.367 8.21331 62.1531 6.84503 60.8487 6.84503C60.3088 6.84503 59.7723 7.07308 59.2325 7.52917C58.649 8.02215 58.0857 8.87733 57.5458 10.0947C57.2306 10.8526 56.902 11.5904 56.5533 12.3014C56.2045 13.0123 55.839 13.8742 55.4568 14.8803C54.8498 16.3626 54.0752 18.1098 53.133 20.122C52.1203 22.2113 51.9795 22.7881 51.9795 23.1671C51.9795 23.3985 52.0801 23.6266 52.2645 23.8479C52.3115 23.9384 52.3718 24.0223 52.4422 24.1028C52.6132 24.2973 52.8748 24.4314 53.2001 24.522C53.418 24.6058 53.6393 24.6494 53.8673 24.6494C53.8942 24.6494 53.921 24.6393 53.9478 24.6393C54.7056 24.6796 56.3856 24.9345 57.6263 24.6494H58.9709C61.0667 24.6293 61.9754 24.7198 64.7686 24.6125C66.291 24.5555 67.4646 24.6896 68.2392 24.5454C68.3834 24.5387 68.5477 24.5052 68.7287 24.4482C69.0372 24.3811 69.2619 24.3174 69.3759 24.2604C69.6576 24.1229 69.8621 23.8848 69.9962 23.5561C70.0868 23.3851 70.1337 23.1939 70.1438 22.986V22.9793C70.1471 22.9525 70.1505 22.9256 70.1505 22.8988C70.1505 22.8753 70.1438 22.8485 70.1404 22.825ZM63.6453 21.5574C61.4791 21.5909 60.1412 21.4903 58.2131 21.4836C58.0454 21.4836 57.5425 21.4568 56.798 21.4836L57.2038 20.6452C57.8241 19.1796 58.0186 18.4653 58.5887 17.0467C58.6792 16.8153 59.2995 15.7623 59.7019 14.7931C59.8159 14.5483 59.9333 14.28 60.0574 13.9983C60.1814 13.7099 60.2753 13.4785 60.3457 13.2974C60.4128 13.1197 60.4564 13.009 60.4799 12.9721C60.5469 12.8011 60.6375 12.7139 60.7481 12.7139C60.9728 12.7139 61.355 13.2471 61.8949 14.3102C62.2906 15.1151 62.5253 15.6885 62.6024 16.0306C63.1155 17.0903 64.1784 19.5016 64.7451 20.5412C64.9094 20.843 65.0872 21.1348 65.2347 21.4366C65.2615 21.4668 65.2951 21.5138 65.3252 21.5574H63.6453Z" fill="#33A1D2"/>
</g>
<defs>
<clipPath id="clip0_3649_1075">
<rect width="129.977" height="27" fill="white" transform="translate(0.0117188 0.5)"/>
</clipPath>
</defs>
</svg>
