<svg width="22" height="22" viewBox="0 0 22 22" fill="none" xmlns="http://www.w3.org/2000/svg">
<path fill-rule="evenodd" clip-rule="evenodd" d="M11 20C15.9706 20 20 15.9706 20 11C20 6.02944 15.9706 2 11 2C6.02944 2 2 6.02944 2 11C2 15.9706 6.02944 20 11 20ZM11 22C17.0751 22 22 17.0751 22 11C22 4.92487 17.0751 0 11 0C4.92487 0 0 4.92487 0 11C0 17.0751 4.92487 22 11 22Z" fill="#565656"/>
<path fill-rule="evenodd" clip-rule="evenodd" d="M11.0055 11.068C11.0055 13.4392 12.826 15.136 15.2646 15.136C16.6355 15.136 17.7705 14.6416 18.5122 13.7313L17.3435 12.6525C16.8153 13.2706 16.1523 13.5853 15.3657 13.5853C13.8936 13.5853 12.8485 12.5514 12.8485 11.068C12.8485 9.58466 13.8936 8.55079 15.3657 8.55079C16.1523 8.55079 16.8153 8.86545 17.3435 9.47228L18.5122 8.39347C17.7705 7.49446 16.6355 7 15.2758 7C12.826 7 11.0055 8.69688 11.0055 11.068ZM6.51723 8.61819V15.0012H8.33773V8.61819H10.855V7H4V8.61819H6.51723Z" fill="#565656"/>
<path d="M14 6H16V8H14V6Z" fill="#565656"/>
<path d="M14 14H16V16H14V14Z" fill="#565656"/>
</svg>
